# xmcd CD database file
#
# Track frame offsets:
#	150
#	12632
#	25354
#	34840
#	47800
#	62493
#	76560
#	88037
#	101674
#	115261
#
# Disc length: 1685 seconds
#
# Revision: 0
# Processed by: cddbd v1.4PL0 Copyright (c) Steve Scherf et al.
# Submitted via: CDex 1.40Release
#
DISCID=7706930a
DTITLE=Johnny Paycheck - Good Old Country
DYEAR=2000
DGENRE=Country
TTITLE0=Take This Job And Shove It
TTITLE1=She's All I Got
TTITLE2=Mr. Love Maker
TTITLE3=Song And Dance Man
TTITLE4=Green Green Grass Of Home
TTITLE5=Someone To Give My Love To
TTITLE6=Please Release Me
TTITLE7=I'm The Only Hell (Mama Ever Raised)
TTITLE8=Slide Off Your Satin Sheets
TTITLE9=Jukebox Charlie
EXTD=YEAR: 2000 ID3G: 2
EXTT0=
EXTT1=
EXTT2=
EXTT3=
EXTT4=
EXTT5=
EXTT6=
EXTT7=
EXTT8=
EXTT9=
PLAYORDER=
